<svg xmlns="http://www.w3.org/2000/svg" viewBox="0 0 100 100" role="img" aria-label="Securepath Consulting">
  <rect width="100" height="100" rx="22" fill="#0B0E14"/>
  <g transform="translate(50 50) rotate(45) translate(-50 -50)" fill="#10B981">
    <path d="M30 30 L45 30 A 15 15 0 0 1 60 45 A 5 5 0 0 1 55 50 L35 50 A 5 5 0 0 1 30 45 Z" opacity=".95"/>
    <path d="M70 30 L70 45 A 15 15 0 0 1 55 60 A 5 5 0 0 1 50 55 L50 35 A 5 5 0 0 1 55 30 Z" opacity=".82"/>
    <path d="M70 70 L55 70 A 15 15 0 0 1 40 55 A 5 5 0 0 1 45 50 L65 50 A 5 5 0 0 1 70 55 Z" opacity=".95"/>
    <path d="M30 70 L30 55 A 15 15 0 0 1 45 40 A 5 5 0 0 1 50 45 L50 65 A 5 5 0 0 1 45 70 Z" opacity=".82"/>
  </g>
  <rect x="42.5" y="42.5" width="15" height="15" rx="2" fill="#0B0E14" transform="rotate(45 50 50)"/>
</svg>
